<?xml version="1.0" encoding="UTF-8" standalone="no"?>
<svg
   width="42"
   viewBox="0 -20 218.4 197.4"
   fill="none"
   stroke="#ffffff"
   stroke-linejoin="round"
   stroke-width="6"
   height="42"
   version="1.1"
   id="svg14"
   sodipodi:docname="gacela-project.svg"
   inkscape:version="1.1.2 (0a00cf5339, 2022-02-04)"
   xmlns:inkscape="http://www.inkscape.org/namespaces/inkscape"
   xmlns:sodipodi="http://sodipodi.sourceforge.net/DTD/sodipodi-0.dtd"
   xmlns="http://www.w3.org/2000/svg"
   xmlns:svg="http://www.w3.org/2000/svg">
  <defs
     id="defs18" />
  <sodipodi:namedview
     id="namedview16"
     pagecolor="#ffffff"
     bordercolor="#666666"
     borderopacity="1.0"
     inkscape:pageshadow="2"
     inkscape:pageopacity="0.0"
     inkscape:pagecheckerboard="0"
     showgrid="false"
     fit-margin-top="0"
     fit-margin-left="0"
     fit-margin-right="0"
     fit-margin-bottom="0"
     inkscape:zoom="15.22"
     inkscape:cx="16.491459"
     inkscape:cy="19.415243"
     inkscape:window-width="1920"
     inkscape:window-height="1140"
     inkscape:window-x="0"
     inkscape:window-y="32"
     inkscape:window-maximized="1"
     inkscape:current-layer="svg14" />
  <path
     d="m 4.4399786,-20.001012 104.5000014,45.3 28.6,44.8 -15,30.000002 -6.9,-4.200002 1.1,-10.2 -21.100001,-53.2 z"
     id="path2" />
  <path
     d="m 25.239979,-26.801011 93.200001,51.2 26,41.1 -6.9,4.6 -28.6,-44.8 L 72.539979,9.498988 Z m 9.8,167.900001 76.300001,-69.100001 5.4,13.7 -1.1,10.2 6.9,4.200001 -52.300001,56.6 z"
     id="path4" />
  <path
     d="m 97.439979,184.49899 45.600001,-55.2 -20.5,-29.2 -52.300001,56.6 z"
     id="path6" />
  <path
     d="m 122.53998,100.09899 -6.9,-4.200002 5.9,-53.2 10.9,37.7 z"
     id="path8" />
  <path
     d="m 143.03998,129.29899 64.7,0.7 -85.2,-29.9 z"
     id="path10" />
  <path
     d="m 144.43998,65.498988 20.7,23.1 49.2,26.500002 -6.6,14.9 -85.2,-29.9 15,-30.000002 z m 2.2,-24.7 -5.3,19.7 -3.6,-5.7 z"
     id="path12" />
</svg>
