<svg xmlns="http://www.w3.org/2000/svg" width="100%" height="100%" viewBox="0 0 2000 1000"><style><![CDATA[.B{fill:none}.C{fill:#dddddd52}.D{fill:#ddddddea}.E{fill:#ddddddeb}.F{fill:#dddddde8}.G{fill:#dddddda2}.H{fill:#ddddddc8}.I{fill:#dddddda5}.J{fill:#dddddd42}.K{fill:#ddddddd5}.L{fill:#ddddddfd}.M{fill:#ddddddd4}.N{fill:#dddddd0e}.O{fill:#dddddd90}.P{fill:#dddddd71}.Q{fill:#dddddd6a}.R{fill:#dddddd62}.S{fill:#ddddddca}.T{fill:#ddddddfa}.U{fill:#dddddd53}.V{fill:#ddddddb2}.W{fill:#dddddd87}]]></style><mask id="A" x="0" y="0" width="2000" height="1000"><path fill="url(#B)" d="M0 0h2000v1000H0z"/></mask><path fill="#fff" d="M0 0h2000v1000H0z"/><g mask="url(#A)"><g transform="matrix(1 0 0 1 0 0)" transform-origin="center center" stroke="#ddd" stroke-width="4"><g class="B"><path d="M0 0h50v50H0z"/><path d="M50 0h50v50H50z"/><path d="M100 0h50v50h-50z"/><path d="M150 0h50v50h-50z"/></g><path fill="#dddddd83" d="M200 0h50v50h-50z"/><g class="B"><path d="M250 0h50v50h-50z"/><path d="M300 0h50v50h-50z"/></g><path d="M350 0h50v50h-50z" class="C"/><g class="B"><path d="M400 0h50v50h-50z"/><path d="M450 0h50v50h-50z"/></g><path fill="#ddddddbb" d="M500 0h50v50h-50z"/><path d="M550 0h50v50h-50z" class="I"/><path d="M600 0h50v50h-50z" class="J"/><path d="M650 0h50v50h-50z" class="B"/><path d="M700 0h50v50h-50z" class="D"/><g class="B"><path d="M750 0h50v50h-50z"/><path d="M800 0h50v50h-50z"/><path d="M850 0h50v50h-50z"/><path d="M900 0h50v50h-50z"/><path d="M950 0h50v50h-50z"/><path d="M1000 0h50v50h-50z"/><path d="M1050 0h50v50h-50z"/><path d="M1100 0h50v50h-50z"/><path d="M1150 0h50v50h-50z"/></g><path fill="#ddddddce" d="M1200 0h50v50h-50z"/><path d="M1250 0h50v50h-50z" class="K"/><g class="B"><path d="M1300 0h50v50h-50z"/><path d="M1350 0h50v50h-50z"/><path d="M1400 0h50v50h-50z"/><path d="M1450 0h50v50h-50z"/></g><path fill="#dddddd41" d="M1500 0h50v50h-50z"/><path fill="#dddddd35" d="M1550 0h50v50h-50z"/><path d="M1600 0h50v50h-50z" class="B"/><path fill="#ddddddad" d="M1650 0h50v50h-50z"/><g class="B"><path d="M1700 0h50v50h-50z"/><path d="M1750 0h50v50h-50z"/></g><path d="M1800 0h50v50h-50z" class="D"/><g class="B"><path d="M1850 0h50v50h-50z"/><path d="M1900 0h50v50h-50z"/><path d="M1950 0h50v50h-50zM0 50h50v50H0z"/><path d="M50 50h50v50H50z"/></g><path fill="#dddddd65" d="M100 50h50v50h-50z"/><path d="M150 50h50v50h-50z" class="B"/><path fill="#dddddd43" d="M200 50h50v50h-50z"/><path fill="#ddddddd0" d="M250 50h50v50h-50z"/><g class="B"><path d="M300 50h50v50h-50z"/><path d="M350 50h50v50h-50z"/><path d="M400 50h50v50h-50z"/></g><path fill="#dddddd78" d="M450 50h50v50h-50z"/><g class="B"><path d="M500 50h50v50h-50z"/><path d="M550 50h50v50h-50z"/><path d="M600 50h50v50h-50z"/><path d="M650 50h50v50h-50z"/></g><path fill="#ddddddcb" d="M700 50h50v50h-50z"/><path d="M750 50h50v50h-50z" class="B"/><path fill="#dddddd8b" d="M800 50h50v50h-50z"/><g class="B"><path d="M850 50h50v50h-50z"/><path d="M900 50h50v50h-50z"/></g><path fill="#dddddd8b" d="M950 50h50v50h-50z"/><g class="B"><path d="M1000 50h50v50h-50z"/><path d="M1050 50h50v50h-50z"/><path d="M1100 50h50v50h-50z"/><path d="M1150 50h50v50h-50z"/><path d="M1200 50h50v50h-50z"/><path d="M1250 50h50v50h-50z"/><path d="M1300 50h50v50h-50z"/></g><path d="M1350 50h50v50h-50z" class="L"/><path fill="#ddddddb6" d="M1400 50h50v50h-50z"/><path d="M1450 50h50v50h-50z" class="B"/><path fill="#ddddddc9" d="M1500 50h50v50h-50z"/><path d="M1550 50h50v50h-50z" class="B"/><path fill="#ddddddac" d="M1600 50h50v50h-50z"/><path fill="#dddddd7d" d="M1650 50h50v50h-50z"/><g class="B"><path d="M1700 50h50v50h-50z"/><path d="M1750 50h50v50h-50z"/></g><path fill="#dddddd38" d="M1800 50h50v50h-50z"/><g class="B"><path d="M1850 50h50v50h-50z"/><path d="M1900 50h50v50h-50z"/><path d="M1950 50h50v50h-50zM0 100h50v50H0z"/><path d="M50 100h50v50H50z"/></g><path fill="#ddddddf9" d="M100 100h50v50h-50z"/><path d="M150 100h50v50h-50z" class="B"/><path fill="#dddddd75" d="M200 100h50v50h-50z"/><path d="M250 100h50v50h-50z" class="K"/><path fill="#ddddddce" d="M300 100h50v50h-50z"/><g class="B"><path d="M350 100h50v50h-50z"/><path d="M400 100h50v50h-50z"/><path d="M450 100h50v50h-50z"/><path d="M500 100h50v50h-50z"/><path d="M550 100h50v50h-50z"/><path d="M600 100h50v50h-50z"/><path d="M650 100h50v50h-50z"/><path d="M700 100h50v50h-50z"/><path d="M750 100h50v50h-50z"/></g><path d="M800 100h50v50h-50z" class="I"/><g class="B"><path d="M850 100h50v50h-50z"/><path d="M900 100h50v50h-50z"/></g><path fill="#dddddd22" d="M950 100h50v50h-50z"/><path fill="#dddddd56" d="M1000 100h50v50h-50z"/><path d="M1050 100h50v50h-50z" class="M"/><path fill="#dddddd05" d="M1100 100h50v50h-50z"/><g class="B"><path d="M1150 100h50v50h-50z"/><path d="M1200 100h50v50h-50z"/><path d="M1250 100h50v50h-50z"/></g><path fill="#dddddde7" d="M1300 100h50v50h-50z"/><g class="B"><path d="M1350 100h50v50h-50z"/><path d="M1400 100h50v50h-50z"/><path d="M1450 100h50v50h-50z"/></g><path fill="#dddddd16" d="M1500 100h50v50h-50z"/><g class="B"><path d="M1550 100h50v50h-50z"/><path d="M1600 100h50v50h-50z"/><path d="M1650 100h50v50h-50z"/><path d="M1700 100h50v50h-50z"/><path d="M1750 100h50v50h-50z"/><path d="M1800 100h50v50h-50z"/></g><path fill="#dddddd06" d="M1850 100h50v50h-50z"/><g class="B"><path d="M1900 100h50v50h-50z"/><path d="M1950 100h50v50h-50zM0 150h50v50H0z"/><path d="M50 150h50v50H50z"/></g><path d="M100 150h50v50h-50z" class="N"/><path d="M150 150h50v50h-50z" class="O"/><path d="M200 150h50v50h-50z" class="B"/><path fill="#ddddddb5" d="M250 150h50v50h-50z"/><path fill="#dddddd5e" d="M300 150h50v50h-50z"/><g class="B"><path d="M350 150h50v50h-50z"/><path d="M400 150h50v50h-50z"/><path d="M450 150h50v50h-50z"/><path d="M500 150h50v50h-50z"/><path d="M550 150h50v50h-50z"/><path d="M600 150h50v50h-50z"/><path d="M650 150h50v50h-50z"/></g><path d="M700 150h50v50h-50z" class="P"/><g class="B"><path d="M750 150h50v50h-50z"/><path d="M800 150h50v50h-50z"/><path d="M850 150h50v50h-50z"/><path d="M900 150h50v50h-50z"/><path d="M950 150h50v50h-50z"/><path d="M1000 150h50v50h-50z"/><path d="M1050 150h50v50h-50z"/><path d="M1100 150h50v50h-50z"/></g><path fill="#dddddd1b" d="M1150 150h50v50h-50z"/><g class="B"><path d="M1200 150h50v50h-50z"/><path d="M1250 150h50v50h-50z"/><path d="M1300 150h50v50h-50z"/><path d="M1350 150h50v50h-50z"/><path d="M1400 150h50v50h-50z"/></g><path fill="#ddddddcb" d="M1450 150h50v50h-50z"/><g class="B"><path d="M1500 150h50v50h-50z"/><path d="M1550 150h50v50h-50z"/><path d="M1600 150h50v50h-50z"/></g><path fill="#ddddddad" d="M1650 150h50v50h-50z"/><path d="M1700 150h50v50h-50z" class="M"/><path d="M1750 150h50v50h-50z" class="B"/><path fill="#dddddd44" d="M1800 150h50v50h-50z"/><g class="B"><path d="M1850 150h50v50h-50z"/><path d="M1900 150h50v50h-50z"/><path d="M1950 150h50v50h-50zM0 200h50v50H0z"/><path d="M50 200h50v50H50z"/><path d="M100 200h50v50h-50z"/><path d="M150 200h50v50h-50z"/></g><path d="M200 200h50v50h-50z" class="P"/><path d="M250 200h50v50h-50z" class="B"/><path fill="#dddddd37" d="M300 200h50v50h-50z"/><path d="M350 200h50v50h-50z" class="B"/><path fill="#dddddd20" d="M400 200h50v50h-50z"/><path d="M450 200h50v50h-50z" class="B"/><path fill="#ddddddb3" d="M500 200h50v50h-50z"/><path d="M550 200h50v50h-50z" class="B"/><path fill="#dddddd27" d="M600 200h50v50h-50z"/><path d="M650 200h50v50h-50z" class="O"/><g class="B"><path d="M700 200h50v50h-50z"/><path d="M750 200h50v50h-50z"/><path d="M800 200h50v50h-50z"/><path d="M850 200h50v50h-50z"/><path d="M900 200h50v50h-50z"/><path d="M950 200h50v50h-50z"/></g><path d="M1000 200h50v50h-50z" class="C"/><g class="B"><path d="M1050 200h50v50h-50z"/><path d="M1100 200h50v50h-50z"/><path d="M1150 200h50v50h-50z"/><path d="M1200 200h50v50h-50z"/></g><path fill="#dddddd44" d="M1250 200h50v50h-50z"/><path d="M1300 200h50v50h-50z" class="Q"/><g class="B"><path d="M1350 200h50v50h-50z"/><path d="M1400 200h50v50h-50z"/><path d="M1450 200h50v50h-50z"/><path d="M1500 200h50v50h-50z"/></g><path fill="#dddddd32" d="M1550 200h50v50h-50z"/><path fill="#dddddd7d" d="M1600 200h50v50h-50z"/><g class="B"><path d="M1650 200h50v50h-50z"/><path d="M1700 200h50v50h-50z"/></g><path fill="#dddddd7e" d="M1750 200h50v50h-50z"/><path fill="#dddddd72" d="M1800 200h50v50h-50z"/><g class="B"><path d="M1850 200h50v50h-50z"/><path d="M1900 200h50v50h-50z"/><path d="M1950 200h50v50h-50zM0 250h50v50H0z"/><path d="M50 250h50v50H50z"/></g><path fill="#ddddddf3" d="M100 250h50v50h-50z"/><path fill="#dddddd0d" d="M150 250h50v50h-50z"/><g class="B"><path d="M200 250h50v50h-50z"/><path d="M250 250h50v50h-50z"/><path d="M300 250h50v50h-50z"/></g><path d="M350 250h50v50h-50z" class="J"/><g class="B"><path d="M400 250h50v50h-50z"/><path d="M450 250h50v50h-50z"/><path d="M500 250h50v50h-50z"/><path d="M550 250h50v50h-50z"/><path d="M600 250h50v50h-50z"/><path d="M650 250h50v50h-50z"/><path d="M700 250h50v50h-50z"/></g><path fill="#dddddd4a" d="M750 250h50v50h-50z"/><path fill="#dddddd9a" d="M800 250h50v50h-50z"/><path d="M850 250h50v50h-50z" class="B"/><path fill="#dddddddd" d="M900 250h50v50h-50z"/><path d="M950 250h50v50h-50z" class="B"/><path d="M1000 250h50v50h-50z" class="E"/><path fill="#dddddd39" d="M1050 250h50v50h-50z"/><g class="B"><path d="M1100 250h50v50h-50z"/><path d="M1150 250h50v50h-50z"/></g><path fill="#dddddd1e" d="M1200 250h50v50h-50z"/><g class="B"><path d="M1250 250h50v50h-50z"/><path d="M1300 250h50v50h-50z"/></g><path d="M1350 250h50v50h-50z" class="R"/><path fill="#ddddddda" d="M1400 250h50v50h-50z"/><g class="B"><path d="M1450 250h50v50h-50z"/><path d="M1500 250h50v50h-50z"/><path d="M1550 250h50v50h-50z"/><path d="M1600 250h50v50h-50z"/><path d="M1650 250h50v50h-50z"/></g><path fill="#dddddde2" d="M1700 250h50v50h-50z"/><path fill="#dddddd55" d="M1750 250h50v50h-50z"/><path fill="#dddddd03" d="M1800 250h50v50h-50z"/><g class="B"><path d="M1850 250h50v50h-50z"/><path d="M1900 250h50v50h-50z"/><path d="M1950 250h50v50h-50z"/></g><path fill="#dddddd0c" d="M0 300h50v50H0z"/><path fill="#ddddddcf" d="M50 300h50v50H50z"/><path d="M100 300h50v50h-50z" class="B"/><path fill="#ddddddb9" d="M150 300h50v50h-50z"/><g class="B"><path d="M200 300h50v50h-50z"/><path d="M250 300h50v50h-50z"/><path d="M300 300h50v50h-50z"/><path d="M350 300h50v50h-50z"/><path d="M400 300h50v50h-50z"/></g><path fill="#dddddd91" d="M450 300h50v50h-50z"/><path d="M500 300h50v50h-50z" class="F"/><g class="B"><path d="M550 300h50v50h-50z"/><path d="M600 300h50v50h-50z"/></g><path fill="#dddddd35" d="M650 300h50v50h-50z"/><path fill="#dddddd60" d="M700 300h50v50h-50z"/><g class="B"><path d="M750 300h50v50h-50z"/><path d="M800 300h50v50h-50z"/><path d="M850 300h50v50h-50z"/><path d="M900 300h50v50h-50z"/><path d="M950 300h50v50h-50z"/></g><path d="M1000 300h50v50h-50z" class="E"/><g class="B"><path d="M1050 300h50v50h-50z"/><path d="M1100 300h50v50h-50z"/><path d="M1150 300h50v50h-50z"/><path d="M1200 300h50v50h-50z"/><path d="M1250 300h50v50h-50z"/></g><path fill="#dddddd97" d="M1300 300h50v50h-50z"/><g class="B"><path d="M1350 300h50v50h-50z"/><path d="M1400 300h50v50h-50z"/><path d="M1450 300h50v50h-50z"/><path d="M1500 300h50v50h-50z"/></g><path fill="#dddddd6f" d="M1550 300h50v50h-50z"/><g class="B"><path d="M1600 300h50v50h-50z"/><path d="M1650 300h50v50h-50z"/><path d="M1700 300h50v50h-50z"/><path d="M1750 300h50v50h-50z"/></g><path fill="#ddddddc3" d="M1800 300h50v50h-50z"/><g class="B"><path d="M1850 300h50v50h-50z"/><path d="M1900 300h50v50h-50z"/></g><path d="M1950 300h50v50h-50z" class="R"/><g class="B"><path d="M0 350h50v50H0z"/><path d="M50 350h50v50H50z"/></g><path fill="#ddddddf0" d="M100 350h50v50h-50z"/><g class="B"><path d="M150 350h50v50h-50z"/><path d="M200 350h50v50h-50z"/></g><path fill="#ddddddd0" d="M250 350h50v50h-50z"/><path d="M300 350h50v50h-50z" class="B"/><path fill="#ddddddba" d="M350 350h50v50h-50z"/><path fill="#dddddddb" d="M400 350h50v50h-50z"/><path fill="#dddddde4" d="M450 350h50v50h-50z"/><g class="B"><path d="M500 350h50v50h-50z"/><path d="M550 350h50v50h-50z"/><path d="M600 350h50v50h-50z"/></g><path fill="#dddddd64" d="M650 350h50v50h-50z"/><path d="M700 350h50v50h-50z" class="B"/><path fill="#dddddda7" d="M750 350h50v50h-50z"/><path fill="#dddddd2c" d="M800 350h50v50h-50z"/><g class="B"><path d="M850 350h50v50h-50z"/><path d="M900 350h50v50h-50z"/><path d="M950 350h50v50h-50z"/><path d="M1000 350h50v50h-50z"/></g><path fill="#dddddd92" d="M1050 350h50v50h-50z"/><g class="B"><path d="M1100 350h50v50h-50z"/><path d="M1150 350h50v50h-50z"/></g><path fill="#dddddd18" d="M1200 350h50v50h-50z"/><path d="M1250 350h50v50h-50z" class="B"/><path d="M1300 350h50v50h-50z" class="G"/><path d="M1350 350h50v50h-50z" class="S"/><path d="M1400 350h50v50h-50z" class="B"/><path fill="#dddddd56" d="M1450 350h50v50h-50z"/><path d="M1500 350h50v50h-50z" class="C"/><g class="B"><path d="M1550 350h50v50h-50z"/><path d="M1600 350h50v50h-50z"/><path d="M1650 350h50v50h-50z"/><path d="M1700 350h50v50h-50z"/></g><path d="M1750 350h50v50h-50z" class="L"/><g class="B"><path d="M1800 350h50v50h-50z"/><path d="M1850 350h50v50h-50z"/><path d="M1900 350h50v50h-50z"/></g><path d="M1950 350h50v50h-50z" class="Q"/><path d="M0 400h50v50H0z" class="N"/><path d="M50 400h50v50H50z" class="B"/><path fill="#dddddd46" d="M100 400h50v50h-50z"/><path d="M150 400h50v50h-50z" class="B"/><path fill="#ddddddcc" d="M200 400h50v50h-50z"/><path fill="#dddddd2e" d="M250 400h50v50h-50z"/><g class="B"><path d="M300 400h50v50h-50z"/><path d="M350 400h50v50h-50z"/><path d="M400 400h50v50h-50z"/><path d="M450 400h50v50h-50z"/><path d="M500 400h50v50h-50z"/><path d="M550 400h50v50h-50z"/><path d="M600 400h50v50h-50z"/><path d="M650 400h50v50h-50z"/><path d="M700 400h50v50h-50z"/><path d="M750 400h50v50h-50z"/></g><path fill="#dddddde6" d="M800 400h50v50h-50z"/><path fill="#dddddd8a" d="M850 400h50v50h-50z"/><g class="B"><path d="M900 400h50v50h-50z"/><path d="M950 400h50v50h-50z"/></g><path fill="#ddddddda" d="M1000 400h50v50h-50z"/><g class="B"><path d="M1050 400h50v50h-50z"/><path d="M1100 400h50v50h-50z"/></g><path fill="#dddddd8a" d="M1150 400h50v50h-50z"/><g class="B"><path d="M1200 400h50v50h-50z"/><path d="M1250 400h50v50h-50z"/><path d="M1300 400h50v50h-50z"/><path d="M1350 400h50v50h-50z"/></g><path fill="#ddddddc6" d="M1400 400h50v50h-50z"/><path fill="#dddddd2b" d="M1450 400h50v50h-50z"/><path fill="#dddddd05" d="M1500 400h50v50h-50z"/><g class="B"><path d="M1550 400h50v50h-50z"/><path d="M1600 400h50v50h-50z"/><path d="M1650 400h50v50h-50z"/><path d="M1700 400h50v50h-50z"/></g><path fill="#dddddd39" d="M1750 400h50v50h-50z"/><path fill="#dddddd73" d="M1800 400h50v50h-50z"/><g class="B"><path d="M1850 400h50v50h-50z"/><path d="M1900 400h50v50h-50z"/><path d="M1950 400h50v50h-50zM0 450h50v50H0z"/><path d="M50 450h50v50H50z"/><path d="M100 450h50v50h-50z"/><path d="M150 450h50v50h-50z"/></g><path fill="#ddddddc3" d="M200 450h50v50h-50z"/><g class="B"><path d="M250 450h50v50h-50z"/><path d="M300 450h50v50h-50z"/><path d="M350 450h50v50h-50z"/><path d="M400 450h50v50h-50z"/><path d="M450 450h50v50h-50z"/><path d="M500 450h50v50h-50z"/><path d="M550 450h50v50h-50z"/></g><path d="M600 450h50v50h-50z" class="J"/><g class="B"><path d="M650 450h50v50h-50z"/><path d="M700 450h50v50h-50z"/></g><path fill="#dddddd6b" d="M750 450h50v50h-50z"/><path d="M800 450h50v50h-50z" class="B"/><path fill="#dddddda8" d="M850 450h50v50h-50z"/><g class="B"><path d="M900 450h50v50h-50z"/><path d="M950 450h50v50h-50z"/><path d="M1000 450h50v50h-50z"/></g><path d="M1050 450h50v50h-50z" class="S"/><path d="M1100 450h50v50h-50z" class="B"/><path fill="#dddddd61" d="M1150 450h50v50h-50z"/><g class="B"><path d="M1200 450h50v50h-50z"/><path d="M1250 450h50v50h-50z"/><path d="M1300 450h50v50h-50z"/></g><path fill="#ddddddf8" d="M1350 450h50v50h-50z"/><path d="M1400 450h50v50h-50z" class="F"/><g class="B"><path d="M1450 450h50v50h-50z"/><path d="M1500 450h50v50h-50z"/><path d="M1550 450h50v50h-50z"/><path d="M1600 450h50v50h-50z"/><path d="M1650 450h50v50h-50z"/><path d="M1700 450h50v50h-50z"/><path d="M1750 450h50v50h-50z"/><path d="M1800 450h50v50h-50z"/><path d="M1850 450h50v50h-50z"/><path d="M1900 450h50v50h-50z"/><path d="M1950 450h50v50h-50zM0 500h50v50H0z"/></g><path fill="#dddddd3c" d="M50 500h50v50H50z"/><path fill="#dddddddc" d="M100 500h50v50h-50z"/><path fill="#dddddd21" d="M150 500h50v50h-50z"/><path d="M200 500h50v50h-50z" class="E"/><g class="B"><path d="M250 500h50v50h-50z"/><path d="M300 500h50v50h-50z"/><path d="M350 500h50v50h-50z"/><path d="M400 500h50v50h-50z"/><path d="M450 500h50v50h-50z"/><path d="M500 500h50v50h-50z"/><path d="M550 500h50v50h-50z"/><path d="M600 500h50v50h-50z"/><path d="M650 500h50v50h-50z"/></g><path d="M700 500h50v50h-50z" class="G"/><g class="B"><path d="M750 500h50v50h-50z"/><path d="M800 500h50v50h-50z"/></g><path d="M850 500h50v50h-50z" class="T"/><g class="B"><path d="M900 500h50v50h-50z"/><path d="M950 500h50v50h-50z"/><path d="M1000 500h50v50h-50z"/><path d="M1050 500h50v50h-50z"/></g><path d="M1100 500h50v50h-50z" class="G"/><g class="B"><path d="M1150 500h50v50h-50z"/><path d="M1200 500h50v50h-50z"/><path d="M1250 500h50v50h-50z"/><path d="M1300 500h50v50h-50z"/><path d="M1350 500h50v50h-50z"/><path d="M1400 500h50v50h-50z"/><path d="M1450 500h50v50h-50z"/><path d="M1500 500h50v50h-50z"/><path d="M1550 500h50v50h-50z"/><path d="M1600 500h50v50h-50z"/><path d="M1650 500h50v50h-50z"/><path d="M1700 500h50v50h-50z"/><path d="M1750 500h50v50h-50z"/><path d="M1800 500h50v50h-50z"/></g><path fill="#ddddddb3" d="M1850 500h50v50h-50z"/><path d="M1900 500h50v50h-50z" class="B"/><path fill="#dddddd2d" d="M1950 500h50v50h-50z"/><path fill="#ddddddf2" d="M0 550h50v50H0z"/><path fill="#ddddddf1" d="M50 550h50v50H50z"/><g class="B"><path d="M100 550h50v50h-50z"/><path d="M150 550h50v50h-50z"/><path d="M200 550h50v50h-50z"/><path d="M250 550h50v50h-50z"/><path d="M300 550h50v50h-50z"/><path d="M350 550h50v50h-50z"/><path d="M400 550h50v50h-50z"/><path d="M450 550h50v50h-50z"/></g><path d="M500 550h50v50h-50z" class="F"/><g class="B"><path d="M550 550h50v50h-50z"/><path d="M600 550h50v50h-50z"/><path d="M650 550h50v50h-50z"/><path d="M700 550h50v50h-50z"/><path d="M750 550h50v50h-50z"/><path d="M800 550h50v50h-50z"/><path d="M850 550h50v50h-50z"/><path d="M900 550h50v50h-50z"/><path d="M950 550h50v50h-50z"/><path d="M1000 550h50v50h-50z"/><path d="M1050 550h50v50h-50z"/><path d="M1100 550h50v50h-50z"/><path d="M1150 550h50v50h-50z"/><path d="M1200 550h50v50h-50z"/></g><path d="M1250 550h50v50h-50z" class="E"/><path fill="#dddddd63" d="M1300 550h50v50h-50z"/><g class="B"><path d="M1350 550h50v50h-50z"/><path d="M1400 550h50v50h-50z"/><path d="M1450 550h50v50h-50z"/></g><path fill="#dddddde6" d="M1500 550h50v50h-50z"/><path fill="#dddddda7" d="M1550 550h50v50h-50z"/><path d="M1600 550h50v50h-50z" class="U"/><path d="M1650 550h50v50h-50z" class="B"/><path fill="#dddddd02" d="M1700 550h50v50h-50z"/><g class="B"><path d="M1750 550h50v50h-50z"/><path d="M1800 550h50v50h-50z"/></g><path fill="#dddddd17" d="M1850 550h50v50h-50z"/><g class="B"><path d="M1900 550h50v50h-50z"/><path d="M1950 550h50v50h-50zM0 600h50v50H0z"/></g><path d="M50 600h50v50H50z" class="H"/><path fill="#dddddd96" d="M100 600h50v50h-50z"/><path d="M150 600h50v50h-50z" class="B"/><path d="M200 600h50v50h-50z" class="D"/><path fill="#dddddd5e" d="M250 600h50v50h-50z"/><g class="B"><path d="M300 600h50v50h-50z"/><path d="M350 600h50v50h-50z"/><path d="M400 600h50v50h-50z"/><path d="M450 600h50v50h-50z"/><path d="M500 600h50v50h-50z"/><path d="M550 600h50v50h-50z"/><path d="M600 600h50v50h-50z"/><path d="M650 600h50v50h-50z"/><path d="M700 600h50v50h-50z"/><path d="M750 600h50v50h-50z"/><path d="M800 600h50v50h-50z"/></g><path d="M850 600h50v50h-50z" class="H"/><path fill="#dddddd99" d="M900 600h50v50h-50z"/><path fill="#ddddddec" d="M950 600h50v50h-50z"/><path d="M1000 600h50v50h-50z" class="B"/><path d="M1050 600h50v50h-50z" class="S"/><path d="M1100 600h50v50h-50z" class="B"/><path fill="#dddddd5b" d="M1150 600h50v50h-50z"/><g class="B"><path d="M1200 600h50v50h-50z"/><path d="M1250 600h50v50h-50z"/><path d="M1300 600h50v50h-50z"/><path d="M1350 600h50v50h-50z"/><path d="M1400 600h50v50h-50z"/><path d="M1450 600h50v50h-50z"/><path d="M1500 600h50v50h-50z"/><path d="M1550 600h50v50h-50z"/></g><path fill="#dddddd11" d="M1600 600h50v50h-50z"/><path fill="#dddddd1c" d="M1650 600h50v50h-50z"/><g class="B"><path d="M1700 600h50v50h-50z"/><path d="M1750 600h50v50h-50z"/><path d="M1800 600h50v50h-50z"/><path d="M1850 600h50v50h-50z"/><path d="M1900 600h50v50h-50z"/></g><path fill="#dddddd3a" d="M1950 600h50v50h-50z"/><path fill="#dddddd5c" d="M0 650h50v50H0z"/><g class="B"><path d="M50 650h50v50H50z"/><path d="M100 650h50v50h-50z"/><path d="M150 650h50v50h-50z"/></g><path fill="#dddddd2d" d="M200 650h50v50h-50z"/><path d="M250 650h50v50h-50z" class="B"/><path d="M300 650h50v50h-50z" class="P"/><g class="B"><path d="M350 650h50v50h-50z"/><path d="M400 650h50v50h-50z"/><path d="M450 650h50v50h-50z"/><path d="M500 650h50v50h-50z"/></g><path fill="#dddddd96" d="M550 650h50v50h-50z"/><g class="B"><path d="M600 650h50v50h-50z"/><path d="M650 650h50v50h-50z"/><path d="M700 650h50v50h-50z"/><path d="M750 650h50v50h-50z"/></g><path fill="#dddddd33" d="M800 650h50v50h-50z"/><path d="M850 650h50v50h-50z" class="B"/><path d="M900 650h50v50h-50z" class="V"/><g class="B"><path d="M950 650h50v50h-50z"/><path d="M1000 650h50v50h-50z"/><path d="M1050 650h50v50h-50z"/><path d="M1100 650h50v50h-50z"/></g><path fill="#ddddddbc" d="M1150 650h50v50h-50z"/><path fill="#dddddd0c" d="M1200 650h50v50h-50z"/><path fill="#dddddd0b" d="M1250 650h50v50h-50z"/><path d="M1300 650h50v50h-50z" class="B"/><path fill="#dddddd47" d="M1350 650h50v50h-50z"/><g class="B"><path d="M1400 650h50v50h-50z"/><path d="M1450 650h50v50h-50z"/><path d="M1500 650h50v50h-50z"/><path d="M1550 650h50v50h-50z"/><path d="M1600 650h50v50h-50z"/><path d="M1650 650h50v50h-50z"/><path d="M1700 650h50v50h-50z"/></g><path d="M1750 650h50v50h-50z" class="U"/><path fill="#dddddd08" d="M1800 650h50v50h-50z"/><g class="B"><path d="M1850 650h50v50h-50z"/><path d="M1900 650h50v50h-50z"/><path d="M1950 650h50v50h-50zM0 700h50v50H0z"/><path d="M50 700h50v50H50z"/><path d="M100 700h50v50h-50z"/><path d="M150 700h50v50h-50z"/><path d="M200 700h50v50h-50z"/></g><path fill="#ddddddb0" d="M250 700h50v50h-50z"/><path fill="#dddddd24" d="M300 700h50v50h-50z"/><path fill="#dddddd1a" d="M350 700h50v50h-50z"/><g class="B"><path d="M400 700h50v50h-50z"/><path d="M450 700h50v50h-50z"/><path d="M500 700h50v50h-50z"/></g><path d="M550 700h50v50h-50z" class="L"/><path d="M600 700h50v50h-50z" class="W"/><path fill="#dddddd34" d="M650 700h50v50h-50z"/><path fill="#ddddddbb" d="M700 700h50v50h-50z"/><path d="M750 700h50v50h-50z" class="B"/><path d="M800 700h50v50h-50z" class="N"/><g class="B"><path d="M850 700h50v50h-50z"/><path d="M900 700h50v50h-50z"/><path d="M950 700h50v50h-50z"/><path d="M1000 700h50v50h-50z"/><path d="M1050 700h50v50h-50z"/><path d="M1100 700h50v50h-50z"/><path d="M1150 700h50v50h-50z"/><path d="M1200 700h50v50h-50z"/></g><path fill="#dddddd89" d="M1250 700h50v50h-50z"/><g class="B"><path d="M1300 700h50v50h-50z"/><path d="M1350 700h50v50h-50z"/><path d="M1400 700h50v50h-50z"/><path d="M1450 700h50v50h-50z"/><path d="M1500 700h50v50h-50z"/><path d="M1550 700h50v50h-50z"/><path d="M1600 700h50v50h-50z"/><path d="M1650 700h50v50h-50z"/></g><path fill="#dddddd04" d="M1700 700h50v50h-50z"/><path d="M1750 700h50v50h-50z" class="B"/><path fill="#dddddde7" d="M1800 700h50v50h-50z"/><g class="B"><path d="M1850 700h50v50h-50z"/><path d="M1900 700h50v50h-50z"/></g><path fill="#dddddd10" d="M1950 700h50v50h-50z"/><g class="B"><path d="M0 750h50v50H0z"/><path d="M50 750h50v50H50z"/><path d="M100 750h50v50h-50z"/><path d="M150 750h50v50h-50z"/><path d="M200 750h50v50h-50z"/><path d="M250 750h50v50h-50z"/></g><path fill="#ddddddff" d="M300 750h50v50h-50z"/><path fill="#dddddd79" d="M350 750h50v50h-50z"/><path d="M400 750h50v50h-50z" class="B"/><path fill="#dddddd51" d="M450 750h50v50h-50z"/><g class="B"><path d="M500 750h50v50h-50z"/><path d="M550 750h50v50h-50z"/><path d="M600 750h50v50h-50z"/><path d="M650 750h50v50h-50z"/></g><path d="M700 750h50v50h-50z" class="U"/><path fill="#dddddd5a" d="M750 750h50v50h-50z"/><path d="M800 750h50v50h-50z" class="B"/><path fill="#dddddd19" d="M850 750h50v50h-50z"/><path fill="#dddddd1c" d="M900 750h50v50h-50z"/><path fill="#dddddddf" d="M950 750h50v50h-50z"/><path fill="#dddddd1f" d="M1000 750h50v50h-50z"/><g class="B"><path d="M1050 750h50v50h-50z"/><path d="M1100 750h50v50h-50z"/><path d="M1150 750h50v50h-50z"/><path d="M1200 750h50v50h-50z"/><path d="M1250 750h50v50h-50z"/><path d="M1300 750h50v50h-50z"/><path d="M1350 750h50v50h-50z"/><path d="M1400 750h50v50h-50z"/></g><path d="M1450 750h50v50h-50z" class="T"/><g class="B"><path d="M1500 750h50v50h-50z"/><path d="M1550 750h50v50h-50z"/><path d="M1600 750h50v50h-50z"/><path d="M1650 750h50v50h-50z"/><path d="M1700 750h50v50h-50z"/></g><path d="M1750 750h50v50h-50z" class="H"/><g class="B"><path d="M1800 750h50v50h-50z"/><path d="M1850 750h50v50h-50z"/></g><path fill="#ddddddac" d="M1900 750h50v50h-50z"/><g class="B"><path d="M1950 750h50v50h-50zM0 800h50v50H0z"/><path d="M50 800h50v50H50z"/></g><path d="M100 800h50v50h-50z" class="W"/><g class="B"><path d="M150 800h50v50h-50z"/><path d="M200 800h50v50h-50z"/><path d="M250 800h50v50h-50z"/></g><path fill="#ddddddb4" d="M300 800h50v50h-50z"/><g class="B"><path d="M350 800h50v50h-50z"/><path d="M400 800h50v50h-50z"/></g><path d="M450 800h50v50h-50z" class="R"/><g class="B"><path d="M500 800h50v50h-50z"/><path d="M550 800h50v50h-50z"/><path d="M600 800h50v50h-50z"/></g><path fill="#ddddddae" d="M650 800h50v50h-50z"/><g class="B"><path d="M700 800h50v50h-50z"/><path d="M750 800h50v50h-50z"/><path d="M800 800h50v50h-50z"/><path d="M850 800h50v50h-50z"/></g><path d="M900 800h50v50h-50z" class="M"/><path fill="#dddddd9d" d="M950 800h50v50h-50z"/><path fill="#dddddd84" d="M1000 800h50v50h-50z"/><g class="B"><path d="M1050 800h50v50h-50z"/><path d="M1100 800h50v50h-50z"/><path d="M1150 800h50v50h-50z"/><path d="M1200 800h50v50h-50z"/><path d="M1250 800h50v50h-50z"/><path d="M1300 800h50v50h-50z"/></g><path fill="#ddddddae" d="M1350 800h50v50h-50z"/><g class="B"><path d="M1400 800h50v50h-50z"/><path d="M1450 800h50v50h-50z"/><path d="M1500 800h50v50h-50z"/><path d="M1550 800h50v50h-50z"/></g><path fill="#dddddd28" d="M1600 800h50v50h-50z"/><g class="B"><path d="M1650 800h50v50h-50z"/><path d="M1700 800h50v50h-50z"/></g><path d="M1750 800h50v50h-50z" class="W"/><g class="B"><path d="M1800 800h50v50h-50z"/><path d="M1850 800h50v50h-50z"/><path d="M1900 800h50v50h-50z"/><path d="M1950 800h50v50h-50z"/></g><path fill="#dddddd4e" d="M0 850h50v50H0z"/><path d="M50 850h50v50H50z" class="B"/><path fill="#ddddddf6" d="M100 850h50v50h-50z"/><path fill="#dddddd37" d="M150 850h50v50h-50z"/><g class="B"><path d="M200 850h50v50h-50z"/><path d="M250 850h50v50h-50z"/></g><path d="M300 850h50v50h-50z" class="V"/><path d="M350 850h50v50h-50z" class="B"/><path fill="#dddddd75" d="M400 850h50v50h-50z"/><path d="M450 850h50v50h-50z" class="B"/><path fill="#dddddd73" d="M500 850h50v50h-50z"/><path fill="#dddddd8d" d="M550 850h50v50h-50z"/><path d="M600 850h50v50h-50z" class="B"/><path fill="#dddddd5d" d="M650 850h50v50h-50z"/><path fill="#ddddddee" d="M700 850h50v50h-50z"/><g class="B"><path d="M750 850h50v50h-50z"/><path d="M800 850h50v50h-50z"/><path d="M850 850h50v50h-50z"/></g><path d="M900 850h50v50h-50z" class="D"/><g class="B"><path d="M950 850h50v50h-50z"/><path d="M1000 850h50v50h-50z"/><path d="M1050 850h50v50h-50z"/></g><path fill="#dddddddc" d="M1100 850h50v50h-50z"/><path d="M1150 850h50v50h-50z" class="K"/><path d="M1200 850h50v50h-50z" class="T"/><g class="B"><path d="M1250 850h50v50h-50z"/><path d="M1300 850h50v50h-50z"/><path d="M1350 850h50v50h-50z"/><path d="M1400 850h50v50h-50z"/><path d="M1450 850h50v50h-50z"/><path d="M1500 850h50v50h-50z"/></g><path fill="#dddddd72" d="M1550 850h50v50h-50z"/><path d="M1600 850h50v50h-50z" class="C"/><path fill="#dddddde5" d="M1650 850h50v50h-50z"/><path d="M1700 850h50v50h-50z" class="H"/><path fill="#dddddd58" d="M1750 850h50v50h-50z"/><g class="B"><path d="M1800 850h50v50h-50z"/><path d="M1850 850h50v50h-50z"/><path d="M1900 850h50v50h-50z"/><path d="M1950 850h50v50h-50zM0 900h50v50H0z"/></g><path d="M50 900h50v50H50z" class="G"/><path d="M100 900h50v50h-50z" class="B"/><path fill="#dddddd04" d="M150 900h50v50h-50z"/><g class="B"><path d="M200 900h50v50h-50z"/><path d="M250 900h50v50h-50z"/></g><path fill="#dddddd68" d="M300 900h50v50h-50z"/><path fill="#ddddddd8" d="M350 900h50v50h-50z"/><path d="M400 900h50v50h-50z" class="B"/><path fill="#dddddddf" d="M450 900h50v50h-50z"/><path d="M500 900h50v50h-50z" class="Q"/><g class="B"><path d="M550 900h50v50h-50z"/><path d="M600 900h50v50h-50z"/><path d="M650 900h50v50h-50z"/><path d="M700 900h50v50h-50z"/><path d="M750 900h50v50h-50z"/><path d="M800 900h50v50h-50z"/><path d="M850 900h50v50h-50z"/><path d="M900 900h50v50h-50z"/></g><path fill="#dddddd1d" d="M950 900h50v50h-50z"/><g class="B"><path d="M1000 900h50v50h-50z"/><path d="M1050 900h50v50h-50z"/><path d="M1100 900h50v50h-50z"/><path d="M1150 900h50v50h-50z"/><path d="M1200 900h50v50h-50z"/></g><path fill="#dddddde5" d="M1250 900h50v50h-50z"/><path d="M1300 900h50v50h-50z" class="B"/><path fill="#dddddd54" d="M1350 900h50v50h-50z"/><path d="M1400 900h50v50h-50z" class="B"/><path d="M1450 900h50v50h-50z" class="F"/><path fill="#dddddd25" d="M1500 900h50v50h-50z"/><path d="M1550 900h50v50h-50z" class="B"/><path fill="#dddddde1" d="M1600 900h50v50h-50z"/><g class="B"><path d="M1650 900h50v50h-50z"/><path d="M1700 900h50v50h-50z"/></g><path fill="#dddddd82" d="M1750 900h50v50h-50z"/><path d="M1800 900h50v50h-50z" class="V"/><path fill="#dddddd7c" d="M1850 900h50v50h-50z"/><g class="B"><path d="M1900 900h50v50h-50z"/><path d="M1950 900h50v50h-50zM0 950h50v50H0z"/></g><path fill="#ddddddec" d="M50 950h50v50H50z"/><path fill="#dddddd3a" d="M100 950h50v50h-50z"/><path d="M150 950h50v50h-50z" class="B"/><path fill="#dddddd82" d="M200 950h50v50h-50z"/><path d="M250 950h50v50h-50z" class="B"/><path fill="#dddddd0f" d="M300 950h50v50h-50z"/><g class="B"><path d="M350 950h50v50h-50z"/><path d="M400 950h50v50h-50z"/><path d="M450 950h50v50h-50z"/></g><path d="M500 950h50v50h-50z" class="O"/><path fill="#ddddddba" d="M550 950h50v50h-50z"/><path fill="#dddddda9" d="M600 950h50v50h-50z"/><path fill="#ddddddd6" d="M650 950h50v50h-50z"/><path fill="#dddddd36" d="M700 950h50v50h-50z"/><path fill="#dddddddd" d="M750 950h50v50h-50z"/><path d="M800 950h50v50h-50z" class="B"/><path fill="#dddddd58" d="M850 950h50v50h-50z"/><g class="B"><path d="M900 950h50v50h-50z"/><path d="M950 950h50v50h-50z"/><path d="M1000 950h50v50h-50z"/><path d="M1050 950h50v50h-50z"/><path d="M1100 950h50v50h-50z"/><path d="M1150 950h50v50h-50z"/></g><path fill="#dddddd02" d="M1200 950h50v50h-50z"/><path d="M1250 950h50v50h-50z" class="I"/><g class="B"><path d="M1300 950h50v50h-50z"/><path d="M1350 950h50v50h-50z"/><path d="M1400 950h50v50h-50z"/><path d="M1450 950h50v50h-50z"/><path d="M1500 950h50v50h-50z"/></g><path fill="#dddddd5b" d="M1550 950h50v50h-50z"/><g class="B"><path d="M1600 950h50v50h-50z"/><path d="M1650 950h50v50h-50z"/><path d="M1700 950h50v50h-50z"/><path d="M1750 950h50v50h-50z"/><path d="M1800 950h50v50h-50z"/></g><path fill="#dddddd59" d="M1850 950h50v50h-50z"/><path fill="#dddddd31" d="M1900 950h50v50h-50z"/><path fill="#dddddd34" d="M1950 950h50v50h-50z"/></g></g><defs><radialGradient id="B"><stop offset="0" stop-color="#fff"/></radialGradient></defs></svg>